<svg width="152" height="28" viewBox="0 0 152 28" fill="none" xmlns="http://www.w3.org/2000/svg">
<g filter="url(#filter0_d_1_1065)">
<path d="M12.242 0.592H15.57L17.676 6.702L19.808 0.592H23.11L19.938 8.99L22.278 14.866L27.504 0.539999H31.404L24.02 19H20.926L17.676 11.252L14.452 19H11.358L4 0.539999H7.848L13.1 14.866L15.388 8.99L12.242 0.592ZM38.227 19.26C37.135 19.26 36.147 19.078 35.263 18.714C34.379 18.3327 33.625 17.8213 33.001 17.18C32.377 16.5213 31.8916 15.776 31.545 14.944C31.2156 14.0947 31.051 13.202 31.051 12.266C31.051 10.966 31.337 9.77867 31.909 8.704C32.4983 7.62933 33.3303 6.77133 34.405 6.13C35.497 5.47133 36.7796 5.142 38.253 5.142C39.7436 5.142 41.0176 5.47133 42.075 6.13C43.1323 6.77133 43.9383 7.62933 44.493 8.704C45.065 9.76133 45.351 10.9053 45.351 12.136C45.351 12.344 45.3423 12.5607 45.325 12.786C45.3076 12.994 45.2903 13.1673 45.273 13.306H34.743C34.8123 13.9993 35.0116 14.606 35.341 15.126C35.6876 15.646 36.121 16.0447 36.641 16.322C37.1783 16.582 37.7503 16.712 38.357 16.712C39.0503 16.712 39.7003 16.5473 40.307 16.218C40.931 15.8713 41.3556 15.4207 41.581 14.866L44.571 15.698C44.2416 16.3913 43.765 17.0067 43.141 17.544C42.5343 18.0813 41.815 18.506 40.983 18.818C40.151 19.1127 39.2323 19.26 38.227 19.26ZM34.665 11.096H41.789C41.7196 10.4027 41.5203 9.80467 41.191 9.302C40.879 8.782 40.463 8.38333 39.943 8.106C39.423 7.81133 38.8423 7.664 38.201 7.664C37.577 7.664 37.005 7.81133 36.485 8.106C35.9823 8.38333 35.5663 8.782 35.237 9.302C34.925 9.80467 34.7343 10.4027 34.665 11.096ZM56.0014 19.26C54.9614 19.26 54.0341 19.026 53.2194 18.558C52.4048 18.09 51.7634 17.4487 51.2954 16.634V19H48.2534V0.0199995H51.7374V7.768C52.2228 6.95333 52.8554 6.312 53.6354 5.844C54.4328 5.376 55.3601 5.142 56.4174 5.142C57.3014 5.142 58.1074 5.33267 58.8354 5.714C59.5634 6.078 60.1874 6.58933 60.7074 7.248C61.2448 7.90667 61.6521 8.66067 61.9294 9.51C62.2241 10.3593 62.3714 11.2693 62.3714 12.24C62.3714 13.2107 62.2068 14.1207 61.8774 14.97C61.5654 15.8193 61.1234 16.5733 60.5514 17.232C59.9794 17.8733 59.3034 18.376 58.5234 18.74C57.7608 19.0867 56.9201 19.26 56.0014 19.26ZM55.0394 16.296C55.5941 16.296 56.0968 16.192 56.5474 15.984C57.0154 15.7587 57.4141 15.464 57.7434 15.1C58.0901 14.736 58.3501 14.3113 58.5234 13.826C58.7141 13.3233 58.8094 12.8033 58.8094 12.266C58.8094 11.5207 58.6534 10.836 58.3414 10.212C58.0468 9.57067 57.6308 9.05933 57.0934 8.678C56.5734 8.29667 55.9581 8.106 55.2474 8.106C54.7448 8.106 54.2594 8.22733 53.7914 8.47C53.3408 8.69533 52.9334 9.00733 52.5694 9.406C52.2228 9.80467 51.9454 10.2553 51.7374 10.758V14.008C51.8414 14.3547 52.0061 14.6667 52.2314 14.944C52.4741 15.2213 52.7514 15.464 53.0634 15.672C53.3754 15.8627 53.6961 16.0187 54.0254 16.14C54.3721 16.244 54.7101 16.296 55.0394 16.296ZM76.6448 5.376C76.5235 5.25467 76.2981 5.09 75.9688 4.882C75.6568 4.674 75.2668 4.47467 74.7988 4.284C74.3481 4.09333 73.8541 3.92867 73.3168 3.79C72.7795 3.634 72.2335 3.556 71.6788 3.556C70.7081 3.556 69.9715 3.738 69.4688 4.102C68.9835 4.466 68.7408 4.97733 68.7408 5.636C68.7408 6.13867 68.8968 6.53733 69.2088 6.832C69.5208 7.12667 69.9888 7.378 70.6128 7.586C71.2368 7.794 72.0168 8.01933 72.9528 8.262C74.1661 8.55667 75.2148 8.92067 76.0988 9.354C77.0001 9.77 77.6848 10.3247 78.1528 11.018C78.6381 11.694 78.8808 12.5953 78.8808 13.722C78.8808 14.71 78.6988 15.5593 78.3348 16.27C77.9708 16.9633 77.4681 17.5267 76.8268 17.96C76.1855 18.3933 75.4575 18.714 74.6428 18.922C73.8281 19.1127 72.9615 19.208 72.0428 19.208C71.1241 19.208 70.2055 19.1127 69.2868 18.922C68.3681 18.7313 67.4841 18.4627 66.6348 18.116C65.7855 17.752 65.0055 17.3187 64.2948 16.816L65.8808 13.722C66.0368 13.878 66.3141 14.086 66.7128 14.346C67.1115 14.5887 67.5968 14.84 68.1688 15.1C68.7408 15.3427 69.3648 15.5507 70.0408 15.724C70.7168 15.8973 71.4015 15.984 72.0948 15.984C73.0655 15.984 73.8021 15.8193 74.3048 15.49C74.8075 15.1607 75.0588 14.6927 75.0588 14.086C75.0588 13.5313 74.8595 13.098 74.4608 12.786C74.0621 12.474 73.5075 12.2053 72.7968 11.98C72.0861 11.7373 71.2455 11.4773 70.2748 11.2C69.1135 10.8707 68.1428 10.5067 67.3628 10.108C66.5828 9.692 66.0021 9.172 65.6208 8.548C65.2395 7.924 65.0488 7.144 65.0488 6.208C65.0488 4.94267 65.3435 3.88533 65.9328 3.036C66.5395 2.16933 67.3541 1.51933 68.3768 1.086C69.3995 0.635333 70.5348 0.409999 71.7828 0.409999C72.6495 0.409999 73.4641 0.505332 74.2268 0.695999C75.0068 0.886666 75.7348 1.138 76.4108 1.45C77.0868 1.762 77.6935 2.1 78.2308 2.464L76.6448 5.376ZM89.8934 18.298C89.5988 18.4193 89.2434 18.558 88.8274 18.714C88.4114 18.87 87.9608 18.9913 87.4754 19.078C87.0074 19.182 86.5308 19.234 86.0454 19.234C85.4041 19.234 84.8148 19.1213 84.2774 18.896C83.7401 18.6707 83.3068 18.3153 82.9774 17.83C82.6654 17.3273 82.5094 16.6773 82.5094 15.88V8.054H80.7154V5.376H82.5094V0.956H85.9934V5.376H88.8534V8.054H85.9934V14.71C86.0108 15.178 86.1408 15.516 86.3834 15.724C86.6261 15.932 86.9294 16.036 87.2934 16.036C87.6574 16.036 88.0128 15.9753 88.3594 15.854C88.7061 15.7327 88.9834 15.6287 89.1914 15.542L89.8934 18.298ZM92.358 13.904V5.376H95.842V13.15C95.842 14.19 96.0326 14.9787 96.414 15.516C96.7953 16.036 97.3586 16.296 98.104 16.296C98.5546 16.296 98.9966 16.2093 99.43 16.036C99.8806 15.8453 100.288 15.568 100.652 15.204C101.033 14.84 101.354 14.3807 101.614 13.826V5.376H105.098V15.1C105.098 15.464 105.159 15.724 105.28 15.88C105.419 16.036 105.635 16.1313 105.93 16.166V19C105.583 19.052 105.289 19.0867 105.046 19.104C104.821 19.1387 104.613 19.156 104.422 19.156C103.798 19.156 103.287 19.0173 102.888 18.74C102.507 18.4453 102.281 18.0467 102.212 17.544L102.134 16.452C101.527 17.3707 100.747 18.0727 99.794 18.558C98.8406 19.026 97.792 19.26 96.648 19.26C95.244 19.26 94.178 18.8093 93.45 17.908C92.722 16.9893 92.358 15.6547 92.358 13.904ZM108.508 12.188C108.508 10.8707 108.768 9.68333 109.288 8.626C109.808 7.55133 110.528 6.702 111.446 6.078C112.365 5.454 113.414 5.142 114.592 5.142C115.598 5.142 116.499 5.39333 117.296 5.896C118.111 6.38133 118.744 7.00533 119.194 7.768V0.0199995H122.678V15.1C122.678 15.464 122.739 15.724 122.86 15.88C122.982 16.036 123.19 16.1313 123.484 16.166V19C122.878 19.1213 122.384 19.182 122.002 19.182C121.378 19.182 120.858 19.026 120.442 18.714C120.044 18.402 119.818 17.9947 119.766 17.492L119.714 16.634C119.212 17.4833 118.527 18.1333 117.66 18.584C116.811 19.0347 115.918 19.26 114.982 19.26C114.046 19.26 113.18 19.078 112.382 18.714C111.602 18.35 110.918 17.8473 110.328 17.206C109.756 16.5647 109.306 15.8193 108.976 14.97C108.664 14.1033 108.508 13.176 108.508 12.188ZM119.194 14.008V10.758C119.021 10.2553 118.744 9.80467 118.362 9.406C117.981 9.00733 117.556 8.69533 117.088 8.47C116.62 8.22733 116.152 8.106 115.684 8.106C115.147 8.106 114.662 8.21867 114.228 8.444C113.795 8.66933 113.414 8.97267 113.084 9.354C112.772 9.73533 112.53 10.1773 112.356 10.68C112.2 11.1827 112.122 11.7113 112.122 12.266C112.122 12.8207 112.209 13.3493 112.382 13.852C112.573 14.3373 112.842 14.762 113.188 15.126C113.535 15.49 113.934 15.776 114.384 15.984C114.852 16.192 115.355 16.296 115.892 16.296C116.222 16.296 116.551 16.244 116.88 16.14C117.227 16.0187 117.548 15.8627 117.842 15.672C118.154 15.464 118.423 15.2213 118.648 14.944C118.891 14.6493 119.073 14.3373 119.194 14.008ZM126.878 19V5.376H130.362V19H126.878ZM126.878 3.478V0.0199995H130.362V3.478H126.878ZM140.577 19.26C139.468 19.26 138.471 19.078 137.587 18.714C136.703 18.3327 135.949 17.8127 135.325 17.154C134.718 16.4953 134.25 15.7413 133.921 14.892C133.592 14.0427 133.427 13.15 133.427 12.214C133.427 11.2607 133.592 10.3593 133.921 9.51C134.25 8.66067 134.718 7.90667 135.325 7.248C135.949 6.58933 136.703 6.078 137.587 5.714C138.471 5.33267 139.468 5.142 140.577 5.142C141.686 5.142 142.674 5.33267 143.541 5.714C144.425 6.078 145.179 6.58933 145.803 7.248C146.427 7.90667 146.895 8.66067 147.207 9.51C147.536 10.3593 147.701 11.2607 147.701 12.214C147.701 13.15 147.536 14.0427 147.207 14.892C146.895 15.7413 146.427 16.4953 145.803 17.154C145.196 17.8127 144.451 18.3327 143.567 18.714C142.683 19.078 141.686 19.26 140.577 19.26ZM137.015 12.214C137.015 13.0113 137.171 13.722 137.483 14.346C137.795 14.9527 138.22 15.4293 138.757 15.776C139.294 16.1227 139.901 16.296 140.577 16.296C141.236 16.296 141.834 16.1227 142.371 15.776C142.908 15.412 143.333 14.9267 143.645 14.32C143.974 13.696 144.139 12.9853 144.139 12.188C144.139 11.408 143.974 10.706 143.645 10.082C143.333 9.458 142.908 8.97267 142.371 8.626C141.834 8.27933 141.236 8.106 140.577 8.106C139.901 8.106 139.294 8.288 138.757 8.652C138.22 8.99867 137.795 9.484 137.483 10.108C137.171 10.7147 137.015 11.4167 137.015 12.214Z" fill="#2196F3"/>
<path d="M12.242 0.592V-0.408H10.7995L11.3056 0.942806L12.242 0.592ZM15.57 0.592L16.5154 0.266133L16.2831 -0.408H15.57V0.592ZM17.676 6.702L16.7306 7.02787L17.6702 9.75392L18.6202 7.03146L17.676 6.702ZM19.808 0.592V-0.408H19.0978L18.8638 0.262544L19.808 0.592ZM23.11 0.592L24.0455 0.945344L24.5567 -0.408H23.11V0.592ZM19.938 8.99L19.0025 8.63666L18.8654 8.99956L19.009 9.35997L19.938 8.99ZM22.278 14.866L21.349 15.236L22.319 17.6717L23.2174 15.2087L22.278 14.866ZM27.504 0.539999V-0.460001H26.8043L26.5646 0.197298L27.504 0.539999ZM31.404 0.539999L32.3325 0.91139L32.881 -0.460001H31.404V0.539999ZM24.02 19V20H24.697L24.9485 19.3714L24.02 19ZM20.926 19L20.0038 19.3868L20.2611 20H20.926V19ZM17.676 11.252L18.5982 10.8652L17.6723 8.65793L16.7527 10.8678L17.676 11.252ZM14.452 19V20H15.119L15.3753 19.3842L14.452 19ZM11.358 19L10.4291 19.3703L10.6801 20H11.358V19ZM4 0.539999V-0.460001H2.5249L3.07107 0.910262L4 0.539999ZM7.848 0.539999L8.78689 0.195794L8.54648 -0.460001H7.848V0.539999ZM13.1 14.866L12.1611 15.2102L13.0718 17.6944L14.0319 15.2288L13.1 14.866ZM15.388 8.99L16.3199 9.35284L16.4584 8.9969L16.3244 8.63919L15.388 8.99ZM12.242 1.592H15.57V-0.408H12.242V1.592ZM14.6246 0.917867L16.7306 7.02787L18.6214 6.37613L16.5154 0.266133L14.6246 0.917867ZM18.6202 7.03146L20.7522 0.921455L18.8638 0.262544L16.7318 6.37254L18.6202 7.03146ZM19.808 1.592H23.11V-0.408H19.808V1.592ZM22.1745 0.238656L19.0025 8.63666L20.8735 9.34334L24.0455 0.945344L22.1745 0.238656ZM19.009 9.35997L21.349 15.236L23.207 14.496L20.867 8.62003L19.009 9.35997ZM23.2174 15.2087L28.4434 0.8827L26.5646 0.197298L21.3386 14.5233L23.2174 15.2087ZM27.504 1.54H31.404V-0.460001H27.504V1.54ZM30.4755 0.168608L23.0915 18.6286L24.9485 19.3714L32.3325 0.91139L30.4755 0.168608ZM24.02 18H20.926V20H24.02V18ZM21.8482 18.6132L18.5982 10.8652L16.7538 11.6388L20.0038 19.3868L21.8482 18.6132ZM16.7527 10.8678L13.5287 18.6158L15.3753 19.3842L18.5993 11.6362L16.7527 10.8678ZM14.452 18H11.358V20H14.452V18ZM12.2869 18.6297L4.92893 0.169736L3.07107 0.910262L10.4291 19.3703L12.2869 18.6297ZM4 1.54H7.848V-0.460001H4V1.54ZM6.90911 0.884204L12.1611 15.2102L14.0389 14.5218L8.78689 0.195794L6.90911 0.884204ZM14.0319 15.2288L16.3199 9.35284L14.4562 8.62716L12.1682 14.5032L14.0319 15.2288ZM16.3244 8.63919L13.1784 0.241194L11.3056 0.942806L14.4516 9.34081L16.3244 8.63919ZM35.263 18.714L34.8669 19.6322L34.8745 19.6355L34.8822 19.6387L35.263 18.714ZM33.001 17.18L32.275 17.8678L32.2842 17.8774L33.001 17.18ZM31.545 14.944L30.6126 15.3055L30.6171 15.3171L30.6219 15.3286L31.545 14.944ZM31.909 8.704L31.0321 8.22313L31.0262 8.23415L31.909 8.704ZM34.405 6.13L34.9174 6.98872L34.9215 6.98629L34.405 6.13ZM42.075 6.13L41.5462 6.97884L41.5564 6.98501L42.075 6.13ZM44.493 8.704L43.6043 9.16264L43.6088 9.17127L43.6134 9.17982L44.493 8.704ZM45.325 12.786L46.3215 12.869L46.322 12.8627L45.325 12.786ZM45.273 13.306V14.306H46.1558L46.2652 13.43L45.273 13.306ZM34.743 13.306V12.306H33.638L33.7479 13.4055L34.743 13.306ZM35.341 15.126L34.4962 15.6611L34.5024 15.671L34.5089 15.6807L35.341 15.126ZM36.641 16.322L36.1704 17.2044L36.1877 17.2136L36.2054 17.2222L36.641 16.322ZM40.307 16.218L40.7841 17.0969L40.7926 17.0922L40.307 16.218ZM41.581 14.866L41.849 13.9026L40.9901 13.6636L40.6545 14.4896L41.581 14.866ZM44.571 15.698L45.4742 16.1271L45.9843 15.0533L44.839 14.7346L44.571 15.698ZM43.141 17.544L42.4884 16.7862L42.4779 16.7954L43.141 17.544ZM40.983 18.818L41.3168 19.7606L41.3255 19.7576L41.3341 19.7543L40.983 18.818ZM34.665 11.096L33.6699 10.9965L33.56 12.096H34.665V11.096ZM41.789 11.096V12.096H42.894L42.784 10.9965L41.789 11.096ZM41.191 9.302L40.3335 9.8165L40.3437 9.83347L40.3545 9.85003L41.191 9.302ZM39.943 8.106L39.45 8.97602L39.4611 8.98233L39.4724 8.98835L39.943 8.106ZM36.485 8.106L36.9681 8.98163L36.978 8.97602L36.485 8.106ZM35.237 9.302L34.3921 8.76693L34.3873 8.77464L35.237 9.302ZM38.227 18.26C37.2471 18.26 36.391 18.097 35.6437 17.7893L34.8822 19.6387C35.903 20.059 37.0228 20.26 38.227 20.26V18.26ZM35.6591 17.7958C34.8862 17.4624 34.2436 17.0231 33.7177 16.4826L32.2842 17.8774C33.0064 18.6195 33.8718 19.203 34.8669 19.6322L35.6591 17.7958ZM33.7269 16.4923C33.1859 15.9212 32.7677 15.2784 32.468 14.5594L30.6219 15.3286C31.0156 16.2736 31.568 17.1215 32.275 17.8677L33.7269 16.4923ZM32.4773 14.5825C32.1939 13.8516 32.051 13.0818 32.051 12.266H30.051C30.051 13.3222 30.2373 14.3377 30.6126 15.3055L32.4773 14.5825ZM32.051 12.266C32.051 11.1184 32.3019 10.0941 32.7917 9.17385L31.0262 8.23415C30.372 9.46323 30.051 10.8136 30.051 12.266H32.051ZM32.7858 9.18483C33.2876 8.26974 33.9923 7.5408 34.9174 6.98871L33.8925 5.27129C32.6683 6.00187 31.709 6.98892 31.0322 8.22317L32.7858 9.18483ZM34.9215 6.98629C35.8347 6.43546 36.9329 6.142 38.253 6.142V4.142C36.6263 4.142 35.1593 4.50721 33.8885 5.27371L34.9215 6.98629ZM38.253 6.142C39.5938 6.142 40.6763 6.43687 41.5462 6.97878L42.6037 5.28122C41.359 4.50579 39.8935 4.142 38.253 4.142V6.142ZM41.5564 6.98501C42.4599 7.53309 43.1361 8.2555 43.6043 9.16264L45.3816 8.24536C44.7405 7.00317 43.8047 6.00958 42.5936 5.27499L41.5564 6.98501ZM43.6134 9.17982C44.1044 10.0874 44.351 11.0674 44.351 12.136H46.351C46.351 10.7433 46.0255 9.43522 45.3725 8.22818L43.6134 9.17982ZM44.351 12.136C44.351 12.3163 44.3435 12.5073 44.3279 12.7093L46.322 12.8627C46.3412 12.614 46.351 12.3717 46.351 12.136H44.351ZM44.3284 12.703C44.3117 12.9032 44.2957 13.0618 44.2807 13.182L46.2652 13.43C46.2849 13.2729 46.3035 13.0848 46.3215 12.869L44.3284 12.703ZM45.273 12.306H34.743V14.306H45.273V12.306ZM33.7479 13.4055C33.8307 14.2331 34.0731 14.9931 34.4962 15.6611L36.1858 14.5909C35.9502 14.2189 35.7939 13.7655 35.738 13.2065L33.7479 13.4055ZM34.5089 15.6807C34.9415 16.3295 35.4959 16.8446 36.1704 17.2044L37.1116 15.4396C36.7461 15.2447 36.4338 14.9625 36.173 14.5713L34.5089 15.6807ZM36.2054 17.2222C36.8808 17.549 37.602 17.712 38.357 17.712V15.712C37.8986 15.712 37.4758 15.615 37.0765 15.4218L36.2054 17.2222ZM38.357 17.712C39.2162 17.712 40.0303 17.5061 40.7841 17.0969L39.8299 15.3391C39.3703 15.5886 38.8844 15.712 38.357 15.712V17.712ZM40.7926 17.0922C41.5762 16.6569 42.1805 16.0471 42.5074 15.2424L40.6545 14.4896C40.5308 14.7942 40.2858 15.0858 39.8213 15.3438L40.7926 17.0922ZM41.3129 15.8294L44.3029 16.6614L44.839 14.7346L41.849 13.9026L41.3129 15.8294ZM43.6677 15.2689C43.4024 15.8275 43.0147 16.3331 42.4884 16.7862L43.7935 18.3018C44.5153 17.6802 45.0809 16.9552 45.4742 16.1271L43.6677 15.2689ZM42.4779 16.7954C41.9713 17.2441 41.3603 17.6085 40.6318 17.8817L41.3341 19.7543C42.2696 19.4035 43.0973 18.9185 43.804 18.2926L42.4779 16.7954ZM40.6491 17.8754C39.9381 18.1272 39.1342 18.26 38.227 18.26V20.26C39.3304 20.26 40.3638 20.0981 41.3168 19.7606L40.6491 17.8754ZM34.665 12.096H41.789V10.096H34.665V12.096ZM42.784 10.9965C42.7012 10.1687 42.458 9.41121 42.0274 8.75397L40.3545 9.85003C40.5826 10.1981 40.738 10.6366 40.7939 11.1955L42.784 10.9965ZM42.0485 8.7875C41.6461 8.11682 41.0983 7.58883 40.4136 7.22365L39.4724 8.98835C39.8277 9.17784 40.1119 9.44718 40.3335 9.8165L42.0485 8.7875ZM40.436 7.23598C39.7547 6.84991 39.0021 6.664 38.201 6.664V8.664C38.6825 8.664 39.0912 8.77275 39.45 8.97602L40.436 7.23598ZM38.201 6.664C37.4121 6.664 36.669 6.8523 35.992 7.23598L36.978 8.97602C37.3409 8.77037 37.7419 8.664 38.201 8.664V6.664ZM36.0019 7.23042C35.3413 7.59486 34.8048 8.11538 34.3922 8.76695L36.0818 9.83705C36.3278 9.44862 36.6233 9.1718 36.968 8.98158L36.0019 7.23042ZM34.3873 8.77464C33.9817 9.42808 33.7518 10.1781 33.6699 10.9965L35.66 11.1955C35.7168 10.6272 35.8682 10.1813 36.0866 9.82936L34.3873 8.77464ZM53.2194 18.558L52.7213 19.4251L52.7213 19.4251L53.2194 18.558ZM51.2954 16.634L52.1625 16.1359L50.2954 12.8857V16.634H51.2954ZM51.2954 19V20H52.2954V19H51.2954ZM48.2534 19H47.2534V20H48.2534V19ZM48.2534 0.0199995V-0.98H47.2534V0.0199995H48.2534ZM51.7374 0.0199995H52.7374V-0.98H51.7374V0.0199995ZM51.7374 7.768H50.7374V11.4004L52.5965 8.2798L51.7374 7.768ZM53.6354 5.844L53.1292 4.98154L53.1209 4.98651L53.6354 5.844ZM58.8354 5.714L58.3714 6.59983L58.3798 6.60421L58.3882 6.60843L58.8354 5.714ZM60.7074 7.248L59.9225 7.86764L59.9275 7.87393L59.9326 7.88013L60.7074 7.248ZM61.9294 9.51L60.9788 9.8204L60.9817 9.82911L60.9847 9.83777L61.9294 9.51ZM61.8774 14.97L60.9451 14.6085L60.9418 14.6168L60.9388 14.6252L61.8774 14.97ZM60.5514 17.232L61.2978 17.8977L61.3065 17.8877L60.5514 17.232ZM58.5234 18.74L58.9372 19.6504L58.9463 19.6462L58.5234 18.74ZM56.5474 15.984L56.9665 16.892L56.9739 16.8885L56.9812 16.885L56.5474 15.984ZM57.7434 15.1L57.0193 14.4103L57.0105 14.4196L57.0019 14.4291L57.7434 15.1ZM58.5234 13.826L57.5884 13.4713L57.585 13.4805L57.5817 13.4897L58.5234 13.826ZM58.3414 10.212L57.4327 10.6295L57.4396 10.6445L57.447 10.6592L58.3414 10.212ZM57.0934 8.678L56.5021 9.4844L56.5083 9.489L56.5147 9.49351L57.0934 8.678ZM53.7914 8.47L54.2386 9.36443L54.2452 9.36114L54.2517 9.35775L53.7914 8.47ZM52.5694 9.406L51.8309 8.73173L51.8228 8.74068L51.8148 8.74982L52.5694 9.406ZM51.7374 10.758L50.8134 10.3756L50.7374 10.5593V10.758H51.7374ZM51.7374 14.008H50.7374V14.1548L50.7796 14.2953L51.7374 14.008ZM52.2314 14.944L51.4553 15.5746L51.4668 15.5888L51.4788 15.6025L52.2314 14.944ZM53.0634 15.672L52.5087 16.5041L52.5251 16.515L52.542 16.5253L53.0634 15.672ZM54.0254 16.14L53.6797 17.0783L53.7086 17.089L53.7381 17.0978L54.0254 16.14ZM56.0014 18.26C55.1171 18.26 54.3649 18.0627 53.7175 17.6909L52.7213 19.4251C53.7033 19.9893 54.8058 20.26 56.0014 20.26V18.26ZM53.7175 17.6909C53.0564 17.3111 52.5424 16.7971 52.1625 16.1359L50.4283 17.1321C50.9845 18.1003 51.7532 18.8689 52.7213 19.4251L53.7175 17.6909ZM50.2954 16.634V19H52.2954V16.634H50.2954ZM51.2954 18H48.2534V20H51.2954V18ZM49.2534 19V0.0199995H47.2534V19H49.2534ZM48.2534 1.02H51.7374V-0.98H48.2534V1.02ZM50.7374 0.0199995V7.768H52.7374V0.0199995H50.7374ZM52.5965 8.2798C53.001 7.60081 53.5177 7.08083 54.1499 6.70149L53.1209 4.98651C52.1932 5.54317 51.4445 6.30585 50.8783 7.25619L52.5965 8.2798ZM54.1416 6.70641C54.7645 6.34081 55.5121 6.142 56.4174 6.142V4.142C55.2081 4.142 54.101 4.41119 53.1292 4.98158L54.1416 6.70641ZM56.4174 6.142C57.1523 6.142 57.7973 6.2991 58.3714 6.59983L59.2994 4.82817C58.4176 4.36623 57.4505 4.142 56.4174 4.142V6.142ZM58.3882 6.60843C58.9807 6.90468 59.4906 7.32058 59.9225 7.86764L61.4923 6.62836C60.8842 5.85809 60.1461 5.25132 59.2826 4.81957L58.3882 6.60843ZM59.9326 7.88013C60.3881 8.43848 60.7378 9.08216 60.9788 9.8204L62.88 9.1996C62.5664 8.23917 62.1015 7.37486 61.4823 6.61587L59.9326 7.88013ZM60.9847 9.83777C61.24 10.5736 61.3714 11.372 61.3714 12.24H63.3714C63.3714 11.1667 63.2082 10.1451 62.8742 9.18223L60.9847 9.83777ZM61.3714 12.24C61.3714 13.0952 61.2268 13.8818 60.9451 14.6085L62.8098 15.3315C63.1867 14.3595 63.3714 13.3261 63.3714 12.24H61.3714ZM60.9388 14.6252C60.667 15.3649 60.2859 16.0127 59.7964 16.5763L61.3065 17.8877C61.961 17.134 62.4638 16.2738 62.8161 15.3148L60.9388 14.6252ZM59.8051 16.5664C59.3236 17.1062 58.7577 17.5271 58.1005 17.8338L58.9463 19.6462C59.8491 19.2249 60.6352 18.6404 61.2977 17.8976L59.8051 16.5664ZM58.1096 17.8296C57.489 18.1117 56.7913 18.26 56.0014 18.26V20.26C57.0489 20.26 58.0325 20.0616 58.9372 19.6504L58.1096 17.8296ZM55.0394 17.296C55.7217 17.296 56.3697 17.1674 56.9665 16.892L56.1284 15.076C55.8238 15.2166 55.4665 15.296 55.0394 15.296V17.296ZM56.9812 16.885C57.5589 16.6069 58.0639 16.2363 58.485 15.7709L57.0019 14.4291C56.7643 14.6917 56.472 14.9104 56.1136 15.083L56.9812 16.885ZM58.4676 15.7897C58.9131 15.3218 59.246 14.7759 59.4652 14.1623L57.5817 13.4897C57.4542 13.8467 57.267 14.1502 57.0193 14.4103L58.4676 15.7897ZM59.4584 14.1807C59.692 13.5647 59.8094 12.9246 59.8094 12.266H57.8094C57.8094 12.6821 57.7361 13.0819 57.5884 13.4713L59.4584 14.1807ZM59.8094 12.266C59.8094 11.3763 59.622 10.537 59.2359 9.76479L57.447 10.6592C57.6849 11.135 57.8094 11.665 57.8094 12.266H59.8094ZM59.2501 9.7945C58.8876 9.0056 58.3626 8.3525 57.6722 7.86249L56.5147 9.49351C56.8989 9.76617 57.2059 10.1357 57.4327 10.6295L59.2501 9.7945ZM57.6848 7.87159C56.9757 7.35161 56.1479 7.106 55.2474 7.106V9.106C55.7682 9.106 56.1711 9.24172 56.5021 9.4844L57.6848 7.87159ZM55.2474 7.106C54.5767 7.106 53.9342 7.26954 53.3311 7.58224L54.2517 9.35775C54.5847 9.18513 54.9128 9.106 55.2474 9.106V7.106ZM53.3442 7.57557C52.7761 7.85961 52.2717 8.24895 51.8309 8.73173L53.3079 10.0803C53.5951 9.76572 53.9054 9.53106 54.2386 9.36443L53.3442 7.57557ZM51.8148 8.74982C51.3952 9.23243 51.0615 9.77615 50.8134 10.3756L52.6614 11.1404C52.8294 10.7345 53.0504 10.3769 53.324 10.0622L51.8148 8.74982ZM50.7374 10.758V14.008H52.7374V10.758H50.7374ZM50.7796 14.2953C50.9207 14.7656 51.1465 15.1945 51.4553 15.5746L53.0075 14.3134C52.8657 14.1388 52.7622 13.9438 52.6952 13.7207L50.7796 14.2953ZM51.4788 15.6025C51.7806 15.9473 52.1247 16.248 52.5087 16.5041L53.6181 14.8399C53.3781 14.68 53.1676 14.4954 52.984 14.2855L51.4788 15.6025ZM52.542 16.5253C52.9073 16.7485 53.2867 16.9335 53.6797 17.0783L54.3711 15.2017C54.1055 15.1038 53.8435 14.9768 53.5849 14.8187L52.542 16.5253ZM53.7381 17.0978C54.1688 17.227 54.6037 17.296 55.0394 17.296V15.296C54.8165 15.296 54.5754 15.261 54.3128 15.1822L53.7381 17.0978ZM76.6448 5.376L75.9377 6.08311L76.8834 7.02875L77.523 5.8543L76.6448 5.376ZM75.9688 4.882L75.4141 5.71405L75.4244 5.7209L75.4348 5.72749L75.9688 4.882ZM74.7988 4.284L74.4091 5.20505L74.4215 5.21009L74.7988 4.284ZM73.3168 3.79L73.038 4.75035L73.0524 4.75453L73.0669 4.75828L73.3168 3.79ZM69.4688 4.102L68.8823 3.29206L68.8755 3.29697L68.8688 3.302L69.4688 4.102ZM70.6128 7.586L70.2966 8.53468L70.2966 8.53468L70.6128 7.586ZM72.9528 8.262L72.7019 9.23L72.7093 9.23193L72.7168 9.23375L72.9528 8.262ZM76.0988 9.354L75.6587 10.2519L75.6691 10.2571L75.6798 10.262L76.0988 9.354ZM78.1528 11.018L77.324 11.5775L77.3321 11.5895L77.3405 11.6012L78.1528 11.018ZM78.3348 16.27L79.2203 16.7349L79.2249 16.7259L78.3348 16.27ZM74.6428 18.922L74.8707 19.8957L74.8805 19.8934L74.8902 19.8909L74.6428 18.922ZM66.6348 18.116L66.2409 19.0351L66.2489 19.0386L66.2569 19.0418L66.6348 18.116ZM64.2948 16.816L63.4049 16.3598L63.0093 17.1316L63.7173 17.6324L64.2948 16.816ZM65.8808 13.722L66.5879 13.0149L65.6172 12.0441L64.9909 13.2658L65.8808 13.722ZM66.7128 14.346L66.1665 15.1836L66.1796 15.1921L66.1929 15.2002L66.7128 14.346ZM68.1688 15.1L67.755 16.0104L67.7666 16.0156L67.7783 16.0206L68.1688 15.1ZM70.0408 15.724L69.7924 16.6927L69.7924 16.6927L70.0408 15.724ZM74.3048 15.49L73.7568 14.6535L73.7568 14.6535L74.3048 15.49ZM72.7968 11.98L72.4737 12.9263L72.4841 12.9299L72.4946 12.9332L72.7968 11.98ZM70.2748 11.2L70.5495 10.2385L70.5476 10.2379L70.2748 11.2ZM67.3628 10.108L66.8922 10.9904L66.8999 10.9945L66.9077 10.9984L67.3628 10.108ZM65.6208 8.548L64.7675 9.06945L64.7675 9.06945L65.6208 8.548ZM65.9328 3.036L65.1136 2.46253L65.1112 2.46592L65.9328 3.036ZM68.3768 1.086L68.767 2.00675L68.7735 2.00397L68.7801 2.00109L68.3768 1.086ZM74.2268 0.695999L73.9843 1.66615L73.9894 1.6674L74.2268 0.695999ZM76.4108 1.45L76.8299 0.54204L76.8299 0.54204L76.4108 1.45ZM78.2308 2.464L79.109 2.9423L79.5432 2.14516L78.7917 1.63608L78.2308 2.464ZM77.3519 4.66889C77.1451 4.46208 76.8362 4.24707 76.5028 4.03651L75.4348 5.72749C75.7601 5.93293 75.9018 6.04725 75.9377 6.08311L77.3519 4.66889ZM76.5235 4.04995C76.1403 3.79444 75.6863 3.56578 75.1761 3.35791L74.4215 5.21009C74.8473 5.38356 75.1734 5.55355 75.4141 5.71405L76.5235 4.04995ZM75.1885 3.36303C74.6869 3.15083 74.1455 2.97109 73.5667 2.82172L73.0669 4.75828C73.5628 4.88624 74.0094 5.03583 74.4092 5.20497L75.1885 3.36303ZM73.5956 2.82965C72.9685 2.64758 72.3287 2.556 71.6788 2.556V4.556C72.1383 4.556 72.5905 4.62042 73.038 4.75035L73.5956 2.82965ZM71.6788 2.556C70.6081 2.556 69.6274 2.75248 68.8823 3.29206L70.0553 4.91194C70.3155 4.72351 70.8082 4.556 71.6788 4.556V2.556ZM68.8688 3.302C68.1077 3.87285 67.7408 4.69383 67.7408 5.636H69.7408C69.7408 5.26084 69.8593 5.05915 70.0688 4.902L68.8688 3.302ZM67.7408 5.636C67.7408 6.3625 67.9757 7.04289 68.5222 7.55901L69.8954 6.10499C69.8179 6.03178 69.7408 5.91483 69.7408 5.636H67.7408ZM68.5222 7.55901C68.9813 7.99262 69.6009 8.3028 70.2966 8.53468L70.929 6.63732C70.3767 6.4532 70.0603 6.26071 69.8954 6.10499L68.5222 7.55901ZM70.2966 8.53468C70.9495 8.75233 71.753 8.98401 72.7019 9.23L73.2038 7.294C72.2806 7.05466 71.5241 6.83567 70.929 6.63732L70.2966 8.53468ZM72.7168 9.23375C73.8774 9.51562 74.8545 9.85771 75.6587 10.2519L76.539 8.45608C75.5752 7.98363 74.4548 7.59771 73.1888 7.29025L72.7168 9.23375ZM75.6798 10.262C76.4465 10.6158 76.9758 11.0617 77.324 11.5775L78.9817 10.4585C78.3938 9.5876 77.5538 8.92417 76.5179 8.44604L75.6798 10.262ZM77.3405 11.6012C77.6673 12.0564 77.8808 12.7318 77.8808 13.722H79.8808C79.8808 12.4589 79.609 11.3316 78.9651 10.4348L77.3405 11.6012ZM77.8808 13.722C77.8808 14.5884 77.7214 15.2741 77.4448 15.8141L79.2249 16.7259C79.6763 15.8445 79.8808 14.8316 79.8808 13.722H77.8808ZM77.4494 15.8052C77.1613 16.354 76.7697 16.7917 76.267 17.1314L77.3867 18.7886C78.1666 18.2616 78.7804 17.5727 79.2202 16.7348L77.4494 15.8052ZM76.267 17.1314C75.7288 17.495 75.1083 17.7711 74.3954 17.9531L74.8902 19.8909C75.8067 19.6569 76.6421 19.2917 77.3867 18.7886L76.267 17.1314ZM74.4149 17.9483C73.6818 18.1199 72.8922 18.208 72.0428 18.208V20.208C73.0308 20.208 73.9744 20.1054 74.8707 19.8957L74.4149 17.9483ZM72.0428 18.208C71.1939 18.208 70.3433 18.12 69.49 17.9429L69.0836 19.9011C70.0677 20.1054 71.0544 20.208 72.0428 20.208V18.208ZM69.49 17.9429C68.6297 17.7643 67.8043 17.5132 67.0127 17.1902L66.2569 19.0418C67.164 19.4121 68.1066 19.6984 69.0836 19.9011L69.49 17.9429ZM67.0287 17.1969C66.2401 16.8589 65.5221 16.4592 64.8723 15.9996L63.7173 17.6324C64.4888 18.1781 65.3309 18.6451 66.2409 19.0351L67.0287 17.1969ZM65.1847 17.2722L66.7707 14.1782L64.9909 13.2658L63.4049 16.3598L65.1847 17.2722ZM65.1737 14.4291C65.4082 14.6636 65.7606 14.9188 66.1665 15.1836L67.2591 13.5084C66.8677 13.2532 66.6654 13.0924 66.5879 13.0149L65.1737 14.4291ZM66.1929 15.2002C66.6351 15.4694 67.1581 15.7391 67.755 16.0104L68.5826 14.1896C68.0355 13.9409 67.5878 13.7079 67.2328 13.4918L66.1929 15.2002ZM67.7783 16.0206C68.4016 16.285 69.0737 16.5084 69.7924 16.6927L70.2892 14.7553C69.6559 14.593 69.08 14.4003 68.5594 14.1794L67.7783 16.0206ZM69.7924 16.6927C70.5491 16.8867 71.3172 16.984 72.0948 16.984V14.984C71.4858 14.984 70.8846 14.908 70.2892 14.7553L69.7924 16.6927ZM72.0948 16.984C73.1513 16.984 74.1154 16.8096 74.8528 16.3265L73.7568 14.6535C73.4889 14.829 72.9797 14.984 72.0948 14.984V16.984ZM74.8528 16.3265C75.6408 15.8102 76.0588 15.026 76.0588 14.086H74.0588C74.0588 14.3594 73.9742 14.5111 73.7568 14.6535L74.8528 16.3265ZM76.0588 14.086C76.0588 13.2575 75.7434 12.5199 75.0771 11.9985L73.8445 13.5735C73.9756 13.6761 74.0588 13.8051 74.0588 14.086H76.0588ZM75.0771 11.9985C74.5512 11.5869 73.8747 11.2727 73.0991 11.0268L72.4946 12.9332C73.1403 13.138 73.5731 13.3611 73.8445 13.5735L75.0771 11.9985ZM73.12 11.0336C72.3889 10.784 71.5313 10.519 70.5495 10.2385L70.0001 12.1615C70.9596 12.4357 71.7834 12.6906 72.4737 12.9263L73.12 11.0336ZM70.5476 10.2379C69.4275 9.92029 68.5225 9.57767 67.8179 9.21757L66.9077 10.9984C67.7631 11.4357 68.7995 11.821 70.002 12.1621L70.5476 10.2379ZM67.8334 9.22565C67.178 8.87609 66.7447 8.46931 66.4741 8.02655L64.7675 9.06945C65.2596 9.87469 65.9876 10.5079 66.8922 10.9904L67.8334 9.22565ZM66.4741 8.02655C66.2121 7.59786 66.0488 7.01075 66.0488 6.208H64.0488C64.0488 7.27725 64.2668 8.25014 64.7675 9.06945L66.4741 8.02655ZM66.0488 6.208C66.0488 5.1002 66.3051 4.25366 66.7544 3.60608L65.1112 2.46592C64.3819 3.51701 64.0488 4.78513 64.0488 6.208H66.0488ZM66.752 3.60946C67.2456 2.90437 67.908 2.3707 68.767 2.00675L67.9867 0.165248C66.8003 0.667963 65.8334 1.43429 65.1136 2.46254L66.752 3.60946ZM68.7801 2.00109C69.6616 1.61262 70.6574 1.41 71.7828 1.41V-0.590001C70.4122 -0.590001 69.1374 -0.341952 67.9736 0.170914L68.7801 2.00109ZM71.7828 1.41C72.576 1.41 73.3086 1.49721 73.9843 1.66614L74.4693 -0.274144C73.6197 -0.486547 72.723 -0.590001 71.7828 -0.590001V1.41ZM73.9894 1.6674C74.7118 1.84399 75.3785 2.0749 75.9918 2.35796L76.8299 0.54204C76.0912 0.201097 75.3019 -0.0706542 74.4643 -0.2754L73.9894 1.6674ZM75.9918 2.35796C76.6254 2.65042 77.1836 2.96246 77.67 3.29192L78.7917 1.63608C78.2033 1.23753 77.5482 0.873576 76.8299 0.54204L75.9918 2.35796ZM77.3526 1.9857L75.7666 4.8977L77.523 5.8543L79.109 2.9423L77.3526 1.9857ZM89.8934 18.298L90.2742 19.2227L91.0767 18.8922L90.8625 18.0512L89.8934 18.298ZM88.8274 18.714L89.1786 19.6503L89.1786 19.6503L88.8274 18.714ZM87.4754 19.078L87.2996 18.0936L87.279 18.0973L87.2585 18.1018L87.4754 19.078ZM82.9774 17.83L82.1278 18.3574L82.1385 18.3747L82.15 18.3915L82.9774 17.83ZM82.5094 8.054H83.5094V7.054H82.5094V8.054ZM80.7154 8.054H79.7154V9.054H80.7154V8.054ZM80.7154 5.376V4.376H79.7154V5.376H80.7154ZM82.5094 5.376V6.376H83.5094V5.376H82.5094ZM82.5094 0.956V-0.0440001H81.5094V0.956H82.5094ZM85.9934 0.956H86.9934V-0.0440001H85.9934V0.956ZM85.9934 5.376H84.9934V6.376H85.9934V5.376ZM88.8534 5.376H89.8534V4.376H88.8534V5.376ZM88.8534 8.054V9.054H89.8534V8.054H88.8534ZM85.9934 8.054V7.054H84.9934V8.054H85.9934ZM85.9934 14.71H84.9934V14.7285L84.9941 14.747L85.9934 14.71ZM86.3834 15.724L85.7326 16.4833L85.7326 16.4833L86.3834 15.724ZM88.3594 15.854L88.0291 14.9101L88.3594 15.854ZM89.1914 15.542L90.1605 15.2952L89.8749 14.1739L88.8068 14.6189L89.1914 15.542ZM89.5127 17.3733C89.2308 17.4894 88.8859 17.6241 88.4763 17.7777L89.1786 19.6503C89.601 19.4919 89.9667 19.3493 90.2742 19.2227L89.5127 17.3733ZM88.4763 17.7777C88.123 17.9102 87.7316 18.0164 87.2996 18.0936L87.6512 20.0624C88.1899 19.9662 88.6999 19.8298 89.1786 19.6503L88.4763 17.7777ZM87.2585 18.1018C86.8626 18.1898 86.4587 18.234 86.0454 18.234V20.234C86.6028 20.234 87.1523 20.1742 87.6924 20.0542L87.2585 18.1018ZM86.0454 18.234C85.5235 18.234 85.0672 18.1428 84.6642 17.9738L83.8907 19.8182C84.5623 20.0998 85.2847 20.234 86.0454 20.234V18.234ZM84.6642 17.9738C84.3069 17.824 84.0262 17.5946 83.8049 17.2685L82.15 18.3915C82.5874 19.0361 83.1734 19.5174 83.8907 19.8182L84.6642 17.9738ZM83.8271 17.3026C83.6419 17.0043 83.5094 16.5538 83.5094 15.88H81.5094C81.5094 16.8009 81.689 17.6503 82.1278 18.3574L83.8271 17.3026ZM83.5094 15.88V8.054H81.5094V15.88H83.5094ZM82.5094 7.054H80.7154V9.054H82.5094V7.054ZM81.7154 8.054V5.376H79.7154V8.054H81.7154ZM80.7154 6.376H82.5094V4.376H80.7154V6.376ZM83.5094 5.376V0.956H81.5094V5.376H83.5094ZM82.5094 1.956H85.9934V-0.0440001H82.5094V1.956ZM84.9934 0.956V5.376H86.9934V0.956H84.9934ZM85.9934 6.376H88.8534V4.376H85.9934V6.376ZM87.8534 5.376V8.054H89.8534V5.376H87.8534ZM88.8534 7.054H85.9934V9.054H88.8534V7.054ZM84.9934 8.054V14.71H86.9934V8.054H84.9934ZM84.9941 14.747C85.0169 15.3628 85.1957 16.023 85.7326 16.4833L87.0342 14.9647C87.0548 14.9823 87.0508 14.9906 87.0373 14.9555C87.0216 14.9146 86.9985 14.8274 86.9928 14.673L84.9941 14.747ZM85.7326 16.4833C86.1816 16.8681 86.726 17.036 87.2934 17.036V15.036C87.1329 15.036 87.0706 14.9959 87.0342 14.9647L85.7326 16.4833ZM87.2934 17.036C87.771 17.036 88.2379 16.956 88.6898 16.7979L88.0291 14.9101C87.7876 14.9947 87.5439 15.036 87.2934 15.036V17.036ZM88.6898 16.7979C89.0449 16.6736 89.3426 16.5623 89.5761 16.4651L88.8068 14.6189C88.6243 14.695 88.3673 14.7918 88.0291 14.9101L88.6898 16.7979ZM88.2224 15.7888L88.9244 18.5448L90.8625 18.0512L90.1605 15.2952L88.2224 15.7888ZM92.358 5.376V4.376H91.358V5.376H92.358ZM95.842 5.376H96.842V4.376H95.842V5.376ZM96.414 15.516L95.5984 16.0947L95.6029 16.1011L95.6075 16.1074L96.414 15.516ZM99.43 16.036L99.8013 16.9645L99.8105 16.9608L99.8196 16.957L99.43 16.036ZM100.652 15.204L99.9615 14.4806L99.9531 14.4887L99.9448 14.4969L100.652 15.204ZM101.614 13.826L102.519 14.2504L102.614 14.0487V13.826H101.614ZM101.614 5.376V4.376H100.614V5.376H101.614ZM105.098 5.376H106.098V4.376H105.098V5.376ZM105.28 15.88L104.491 16.4939L104.511 16.5198L104.533 16.5444L105.28 15.88ZM105.93 16.166H106.93V15.2768L106.047 15.1728L105.93 16.166ZM105.93 19L106.078 19.9889L106.93 19.8612V19H105.93ZM105.046 19.104L104.975 18.1065L104.934 18.1094L104.894 18.1156L105.046 19.104ZM102.888 18.74L102.277 19.5313L102.296 19.5466L102.317 19.5609L102.888 18.74ZM102.212 17.544L101.214 17.6152L101.217 17.6481L101.221 17.6806L102.212 17.544ZM102.134 16.452L103.131 16.3808L102.922 13.4445L101.299 15.9009L102.134 16.452ZM99.794 18.558L100.235 19.4557L100.241 19.4525L100.248 19.4492L99.794 18.558ZM93.45 17.908L92.6662 18.5291L92.672 18.5363L93.45 17.908ZM93.358 13.904V5.376H91.358V13.904H93.358ZM92.358 6.376H95.842V4.376H92.358V6.376ZM94.842 5.376V13.15H96.842V5.376H94.842ZM94.842 13.15C94.842 14.2864 95.0458 15.316 95.5984 16.0947L97.2295 14.9373C97.0194 14.6413 96.842 14.0936 96.842 13.15H94.842ZM95.6075 16.1074C96.2084 16.9268 97.0968 17.296 98.104 17.296V15.296C97.6205 15.296 97.3821 15.1452 97.2204 14.9246L95.6075 16.1074ZM98.104 17.296C98.6864 17.296 99.2542 17.1833 99.8013 16.9645L99.0586 15.1075C98.7391 15.2353 98.4229 15.296 98.104 15.296V17.296ZM99.8196 16.957C100.395 16.7135 100.909 16.3614 101.359 15.9111L99.9448 14.4969C99.6671 14.7746 99.3663 14.9771 99.0403 15.115L99.8196 16.957ZM101.342 15.9274C101.827 15.4652 102.215 14.8993 102.519 14.2504L100.708 13.4016C100.493 13.862 100.24 14.2148 99.9615 14.4806L101.342 15.9274ZM102.614 13.826V5.376H100.614V13.826H102.614ZM101.614 6.376H105.098V4.376H101.614V6.376ZM104.098 5.376V15.1H106.098V5.376H104.098ZM104.098 15.1C104.098 15.5228 104.158 16.0665 104.491 16.4939L106.069 15.2661C106.123 15.3347 106.126 15.3768 106.117 15.3408C106.109 15.3066 106.098 15.2311 106.098 15.1H104.098ZM104.533 16.5444C104.891 16.9478 105.377 17.1078 105.813 17.1592L106.047 15.1728C106.012 15.1687 105.986 15.1636 105.97 15.1595C105.954 15.1553 105.947 15.1524 105.949 15.1532C105.951 15.154 105.961 15.1587 105.976 15.1692C105.991 15.18 106.009 15.1953 106.027 15.2156L104.533 16.5444ZM104.93 16.166V19H106.93V16.166H104.93ZM105.782 18.0111C105.45 18.0607 105.183 18.0917 104.975 18.1065L105.117 20.1015C105.394 20.0817 105.716 20.0433 106.078 19.9889L105.782 18.0111ZM104.894 18.1156C104.709 18.144 104.553 18.156 104.422 18.156V20.156C104.672 20.156 104.932 20.1333 105.198 20.0924L104.894 18.1156ZM104.422 18.156C103.944 18.156 103.648 18.0506 103.459 17.9191L102.317 19.5609C102.925 19.9841 103.652 20.156 104.422 20.156V18.156ZM103.499 17.9487C103.337 17.8233 103.238 17.6658 103.203 17.4074L101.221 17.6806C101.324 18.4275 101.676 19.0673 102.277 19.5313L103.499 17.9487ZM103.209 17.4728L103.131 16.3808L101.136 16.5232L101.214 17.6152L103.209 17.4728ZM101.299 15.9009C100.785 16.6796 100.135 17.2624 99.3403 17.6668L100.248 19.4492C101.36 18.883 102.269 18.0617 102.968 17.0031L101.299 15.9009ZM99.3533 17.6603C98.5475 18.0559 97.6512 18.26 96.648 18.26V20.26C97.9327 20.26 99.1337 19.9961 100.235 19.4557L99.3533 17.6603ZM96.648 18.26C95.4753 18.26 94.7256 17.8959 94.2279 17.2797L92.672 18.5363C93.6303 19.7227 95.0126 20.26 96.648 20.26V18.26ZM94.2337 17.2869C93.7001 16.6135 93.358 15.5358 93.358 13.904H91.358C91.358 15.7735 91.7438 17.3651 92.6662 18.5291L94.2337 17.2869ZM109.288 8.626L110.186 9.06733L110.188 9.06156L109.288 8.626ZM111.446 6.078L112.008 6.90522L112.008 6.90522L111.446 6.078ZM117.296 5.896L116.763 6.74193L116.774 6.74865L116.784 6.7551L117.296 5.896ZM119.194 7.768L118.333 8.27673L120.194 11.426V7.768H119.194ZM119.194 0.0199995V-0.98H118.194V0.0199995H119.194ZM122.678 0.0199995H123.678V-0.98H122.678V0.0199995ZM122.86 15.88L123.65 15.2661L123.65 15.2661L122.86 15.88ZM123.484 16.166H124.484V15.2768L123.601 15.1728L123.484 16.166ZM123.484 19L123.68 19.9806L124.484 19.8198V19H123.484ZM120.442 18.714L119.826 19.5015L119.834 19.5078L119.842 19.514L120.442 18.714ZM119.766 17.492L118.768 17.5525L118.769 17.5737L118.772 17.5949L119.766 17.492ZM119.714 16.634L120.712 16.5735L120.515 13.3175L118.854 16.1247L119.714 16.634ZM117.66 18.584L117.199 17.6968L117.192 17.7007L117.66 18.584ZM112.382 18.714L111.959 19.6202L111.967 19.6237L112.382 18.714ZM110.328 17.206L109.582 17.8716L109.587 17.8772L109.592 17.8826L110.328 17.206ZM108.976 14.97L108.035 15.3087L108.039 15.3202L108.044 15.3315L108.976 14.97ZM119.194 14.008L120.133 14.3537L120.194 14.1864V14.008H119.194ZM119.194 10.758H120.194V10.5904L120.14 10.432L119.194 10.758ZM118.362 9.406L119.085 8.71478L119.085 8.71478L118.362 9.406ZM117.088 8.47L116.628 9.35775L116.641 9.36457L116.654 9.371L117.088 8.47ZM114.228 8.444L114.69 9.33122L114.228 8.444ZM113.084 9.354L112.327 8.70038L112.319 8.71046L112.31 8.72076L113.084 9.354ZM112.356 10.68L111.411 10.354L111.406 10.3687L111.401 10.3836L112.356 10.68ZM112.382 13.852L111.437 14.178L111.444 14.198L111.451 14.2177L112.382 13.852ZM113.188 15.126L112.464 15.8157L112.464 15.8157L113.188 15.126ZM114.384 15.984L113.965 16.892L113.972 16.8949L113.978 16.8978L114.384 15.984ZM116.88 16.14L117.181 17.0936L117.196 17.0889L117.211 17.0839L116.88 16.14ZM117.842 15.672L118.386 16.5116L118.397 16.5041L117.842 15.672ZM118.648 14.944L117.876 14.3083L117.872 14.3134L118.648 14.944ZM109.508 12.188C109.508 11.0055 109.741 9.97186 110.186 9.06732L108.391 8.18468C107.796 9.3948 107.508 10.7359 107.508 12.188H109.508ZM110.188 9.06156C110.638 8.13262 111.245 7.42323 112.008 6.90522L110.884 5.25078C109.81 5.98077 108.979 6.97005 108.388 8.19044L110.188 9.06156ZM112.008 6.90522C112.751 6.40087 113.601 6.142 114.592 6.142V4.142C113.226 4.142 111.979 4.50713 110.884 5.25078L112.008 6.90522ZM114.592 6.142C115.422 6.142 116.136 6.3467 116.763 6.74193L117.83 5.05007C116.862 4.43997 115.773 4.142 114.592 4.142V6.142ZM116.784 6.7551C117.466 7.16094 117.974 7.66836 118.333 8.27673L120.055 7.25927C119.513 6.34231 118.756 5.60172 117.808 5.0369L116.784 6.7551ZM120.194 7.768V0.0199995H118.194V7.768H120.194ZM119.194 1.02H122.678V-0.98H119.194V1.02ZM121.678 0.0199995V15.1H123.678V0.0199995H121.678ZM121.678 15.1C121.678 15.5228 121.738 16.0665 122.071 16.4939L123.65 15.2661C123.703 15.3347 123.706 15.3768 123.698 15.3408C123.69 15.3066 123.678 15.2311 123.678 15.1H121.678ZM122.071 16.4939C122.423 16.9471 122.939 17.1087 123.367 17.1592L123.601 15.1728C123.528 15.1643 123.51 15.1529 123.524 15.1594C123.532 15.1633 123.551 15.1727 123.574 15.1907C123.598 15.209 123.625 15.2339 123.65 15.2661L122.071 16.4939ZM122.484 16.166V19H124.484V16.166H122.484ZM123.288 18.0194C122.711 18.1347 122.29 18.182 122.002 18.182V20.182C122.477 20.182 123.044 20.1079 123.68 19.9806L123.288 18.0194ZM122.002 18.182C121.55 18.182 121.253 18.0718 121.042 17.914L119.842 19.514C120.464 19.9802 121.206 20.182 122.002 20.182V18.182ZM121.059 17.9265C120.873 17.7815 120.785 17.6211 120.761 17.3891L118.772 17.5949C118.852 18.3682 119.214 19.0225 119.826 19.5015L121.059 17.9265ZM120.764 17.4315L120.712 16.5735L118.716 16.6945L118.768 17.5525L120.764 17.4315ZM118.854 16.1247C118.445 16.815 117.898 17.3333 117.199 17.6968L118.122 19.4712C119.156 18.9334 119.978 18.1517 120.575 17.1433L118.854 16.1247ZM117.192 17.7007C116.482 18.0769 115.75 18.26 114.982 18.26V20.26C116.086 20.26 117.139 19.9924 118.129 19.4673L117.192 17.7007ZM114.982 18.26C114.18 18.26 113.456 18.1048 112.798 17.8043L111.967 19.6237C112.903 20.0512 113.913 20.26 114.982 20.26V18.26ZM112.805 17.8078C112.145 17.4998 111.566 17.0756 111.065 16.5294L109.592 17.8826C110.269 18.6191 111.059 19.2002 111.959 19.6202L112.805 17.8078ZM111.075 16.5404C110.587 15.9937 110.197 15.3529 109.909 14.6085L108.044 15.3315C108.414 16.2858 108.925 17.1356 109.582 17.8716L111.075 16.5404ZM109.917 14.6313C109.647 13.8809 109.508 13.0689 109.508 12.188H107.508C107.508 13.2831 107.681 14.3258 108.035 15.3087L109.917 14.6313ZM120.194 14.008V10.758H118.194V14.008H120.194ZM120.14 10.432C119.917 9.7878 119.562 9.21368 119.085 8.71478L117.64 10.0972C117.925 10.3957 118.124 10.7229 118.249 11.084L120.14 10.432ZM119.085 8.71478C118.626 8.23486 118.105 7.84953 117.522 7.569L116.654 9.371C117.008 9.54113 117.336 9.77981 117.64 10.0972L119.085 8.71478ZM117.549 7.58224C116.956 7.27526 116.332 7.106 115.684 7.106V9.106C115.973 9.106 116.284 9.17941 116.628 9.35775L117.549 7.58224ZM115.684 7.106C115.003 7.106 114.357 7.25015 113.767 7.55678L114.69 9.33122C114.967 9.18719 115.291 9.106 115.684 9.106V7.106ZM113.767 7.55678C113.218 7.84242 112.737 8.22626 112.327 8.70038L113.841 10.0076C114.09 9.71907 114.372 9.49625 114.69 9.33122L113.767 7.55678ZM112.31 8.72076C111.918 9.20057 111.62 9.74848 111.411 10.354L113.302 11.006C113.439 10.6062 113.627 10.2701 113.858 9.98724L112.31 8.72076ZM111.401 10.3836C111.214 10.9873 111.122 11.6163 111.122 12.266H113.122C113.122 11.8064 113.187 11.378 113.311 10.9764L111.401 10.3836ZM111.122 12.266C111.122 12.9268 111.226 13.566 111.437 14.178L113.328 13.526C113.192 13.1327 113.122 12.7146 113.122 12.266H111.122ZM111.451 14.2177C111.688 14.8187 112.025 15.3545 112.464 15.8157L113.912 14.4363C113.658 14.1695 113.458 13.8559 113.313 13.4863L111.451 14.2177ZM112.464 15.8157C112.897 16.2698 113.398 16.6304 113.965 16.892L114.803 15.076C114.469 14.9216 114.173 14.7102 113.912 14.4363L112.464 15.8157ZM113.978 16.8978C114.58 17.1654 115.222 17.296 115.892 17.296V15.296C115.488 15.296 115.124 15.2186 114.79 15.0702L113.978 16.8978ZM115.892 17.296C116.329 17.296 116.759 17.2268 117.181 17.0936L116.579 15.1864C116.342 15.2612 116.115 15.296 115.892 15.296V17.296ZM117.211 17.0839C117.629 16.9375 118.021 16.7473 118.385 16.5116L117.299 14.8324C117.074 14.9781 116.825 15.0998 116.55 15.1961L117.211 17.0839ZM118.397 16.5041C118.788 16.2431 119.133 15.9336 119.424 15.5746L117.872 14.3134C117.713 14.5091 117.52 14.6849 117.288 14.8399L118.397 16.5041ZM119.42 15.5797C119.728 15.206 119.969 14.7972 120.133 14.3537L118.256 13.6623C118.177 13.8775 118.054 14.0927 117.876 14.3083L119.42 15.5797ZM126.878 19H125.878V20H126.878V19ZM126.878 5.376V4.376H125.878V5.376H126.878ZM130.362 5.376H131.362V4.376H130.362V5.376ZM130.362 19V20H131.362V19H130.362ZM126.878 3.478H125.878V4.478H126.878V3.478ZM126.878 0.0199995V-0.98H125.878V0.0199995H126.878ZM130.362 0.0199995H131.362V-0.98H130.362V0.0199995ZM130.362 3.478V4.478H131.362V3.478H130.362ZM127.878 19V5.376H125.878V19H127.878ZM126.878 6.376H130.362V4.376H126.878V6.376ZM129.362 5.376V19H131.362V5.376H129.362ZM130.362 18H126.878V20H130.362V18ZM127.878 3.478V0.0199995H125.878V3.478H127.878ZM126.878 1.02H130.362V-0.98H126.878V1.02ZM129.362 0.0199995V3.478H131.362V0.0199995H129.362ZM130.362 2.478H126.878V4.478H130.362V2.478ZM137.587 18.714L137.191 19.6322L137.199 19.6355L137.206 19.6387L137.587 18.714ZM135.325 17.154L134.589 17.8315L134.599 17.8417L135.325 17.154ZM133.921 14.892L134.853 14.5305L133.921 14.892ZM133.921 9.51L134.853 9.87153L134.853 9.87153L133.921 9.51ZM135.325 7.248L134.599 6.56019L134.589 6.57052L135.325 7.248ZM137.587 5.714L137.968 6.63868L137.975 6.63551L137.983 6.63221L137.587 5.714ZM143.541 5.714L143.138 6.62931L143.149 6.63413L143.16 6.63868L143.541 5.714ZM145.803 7.248L145.077 7.93574L145.077 7.93574L145.803 7.248ZM147.207 9.51L146.268 9.85482L146.271 9.8632L146.275 9.87153L147.207 9.51ZM147.207 14.892L146.275 14.5305L146.271 14.5388L146.268 14.5472L147.207 14.892ZM145.803 17.154L145.077 16.4662L145.067 16.4765L145.803 17.154ZM143.567 18.714L143.948 19.6387L143.955 19.6355L143.963 19.6322L143.567 18.714ZM137.483 14.346L136.589 14.7932L136.594 14.8033L137.483 14.346ZM138.757 15.776L139.299 14.9357L139.299 14.9357L138.757 15.776ZM142.371 15.776L142.913 16.6163L142.923 16.6102L142.932 16.6039L142.371 15.776ZM143.645 14.32L142.761 13.8532L142.756 13.8627L143.645 14.32ZM143.645 10.082L142.751 10.5292L142.755 10.539L142.761 10.5488L143.645 10.082ZM142.371 8.626L141.829 9.4663L141.829 9.4663L142.371 8.626ZM138.757 8.652L139.299 9.4923L139.309 9.48621L139.318 9.47992L138.757 8.652ZM137.483 10.108L138.372 10.5654L138.377 10.5552L137.483 10.108ZM140.577 18.26C139.578 18.26 138.713 18.0963 137.968 17.7893L137.206 19.6387C138.229 20.0597 139.358 20.26 140.577 20.26V18.26ZM137.983 17.7958C137.216 17.4648 136.576 17.0206 136.051 16.4663L134.599 17.8417C135.322 18.6047 136.19 19.2005 137.191 19.6322L137.983 17.7958ZM136.061 16.4765C135.54 15.9115 135.138 15.2652 134.853 14.5305L132.989 15.2535C133.362 16.2175 133.896 17.0791 134.589 17.8315L136.061 16.4765ZM134.853 14.5305C134.57 13.7996 134.427 13.0298 134.427 12.214H132.427C132.427 13.2702 132.613 14.2857 132.989 15.2535L134.853 14.5305ZM134.427 12.214C134.427 11.3785 134.571 10.6003 134.853 9.87153L132.989 9.14847C132.613 10.1184 132.427 11.1428 132.427 12.214H134.427ZM134.853 9.87153C135.138 9.13684 135.54 8.49046 136.061 7.92548L134.589 6.57052C133.896 7.32287 133.362 8.18449 132.989 9.14847L134.853 9.87153ZM136.051 7.93574C136.573 7.385 137.207 6.95189 137.968 6.63868L137.206 4.78932C136.199 5.20411 135.325 5.79367 134.599 6.56025L136.051 7.93574ZM137.983 6.63221C138.724 6.31243 139.583 6.142 140.577 6.142V4.142C139.352 4.142 138.218 4.3529 137.191 4.79579L137.983 6.63221ZM140.577 6.142C141.571 6.142 142.418 6.31258 143.138 6.62931L143.944 4.79868C142.93 4.35275 141.801 4.142 140.577 4.142V6.142ZM143.16 6.63868C143.921 6.95189 144.555 7.385 145.077 7.93574L146.529 6.56025C145.803 5.79367 144.929 5.20411 143.922 4.78932L143.16 6.63868ZM145.077 7.93574C145.608 8.49602 146.003 9.13342 146.268 9.85482L148.146 9.16518C147.787 8.18791 147.246 7.31731 146.529 6.56025L145.077 7.93574ZM146.275 9.87153C146.557 10.6003 146.701 11.3785 146.701 12.214H148.701C148.701 11.1428 148.515 10.1184 148.139 9.14847L146.275 9.87153ZM146.701 12.214C146.701 13.0298 146.558 13.7996 146.275 14.5305L148.139 15.2535C148.515 14.2857 148.701 13.2702 148.701 12.214H146.701ZM146.268 14.5472C146.003 15.2686 145.608 15.906 145.077 16.4663L146.529 17.8417C147.246 17.0847 147.787 16.2141 148.146 15.2368L146.268 14.5472ZM145.067 16.4765C144.563 17.0244 143.936 17.4658 143.171 17.7958L143.963 19.6322C144.966 19.1996 145.83 18.6009 146.539 17.8315L145.067 16.4765ZM143.186 17.7893C142.441 18.0963 141.576 18.26 140.577 18.26V20.26C141.796 20.26 142.925 20.0597 143.948 19.6387L143.186 17.7893ZM136.015 12.214C136.015 13.1443 136.198 14.0117 136.589 14.7932L138.377 13.8988C138.144 13.4323 138.015 12.8784 138.015 12.214H136.015ZM136.594 14.8033C136.98 15.5551 137.52 16.1682 138.215 16.6163L139.299 14.9357C138.919 14.6904 138.61 14.3502 138.372 13.8887L136.594 14.8033ZM138.215 16.6163C138.923 17.0733 139.72 17.296 140.577 17.296V15.296C140.082 15.296 139.665 15.172 139.299 14.9357L138.215 16.6163ZM140.577 17.296C141.422 17.296 142.209 17.0705 142.913 16.6163L141.829 14.9357C141.458 15.1749 141.049 15.296 140.577 15.296V17.296ZM142.932 16.6039C143.615 16.141 144.15 15.5252 144.534 14.7773L142.756 13.8627C142.516 14.3281 142.201 14.683 141.81 14.9481L142.932 16.6039ZM144.529 14.7868C144.944 14.0011 145.139 13.1266 145.139 12.188H143.139C143.139 12.8441 143.005 13.3909 142.761 13.8532L144.529 14.7868ZM145.139 12.188C145.139 11.2628 144.942 10.3978 144.529 9.61524L142.761 10.5488C143.006 11.0142 143.139 11.5532 143.139 12.188H145.139ZM144.539 9.63479C144.155 8.86561 143.615 8.23821 142.913 7.7857L141.829 9.4663C142.202 9.70712 142.511 10.0504 142.751 10.5292L144.539 9.63479ZM142.913 7.7857C142.209 7.33152 141.422 7.106 140.577 7.106V9.106C141.049 9.106 141.458 9.22714 141.829 9.4663L142.913 7.7857ZM140.577 7.106C139.71 7.106 138.906 7.3431 138.196 7.82408L139.318 9.47992C139.682 9.2329 140.092 9.106 140.577 9.106V7.106ZM138.215 7.8117C137.513 8.26421 136.973 8.89161 136.589 9.66079L138.377 10.5552C138.617 10.0764 138.926 9.73312 139.299 9.4923L138.215 7.8117ZM136.594 9.65065C136.198 10.4209 136.015 11.2844 136.015 12.214H138.015C138.015 11.5489 138.144 11.0085 138.372 10.5653L136.594 9.65065Z" fill="black"/>
</g>
<defs>
<filter id="filter0_d_1_1065" x="0" y="0.0200195" width="151.701" height="27.24" filterUnits="userSpaceOnUse" color-interpolation-filters="sRGB">
<feFlood flood-opacity="0" result="BackgroundImageFix"/>
<feColorMatrix in="SourceAlpha" type="matrix" values="0 0 0 0 0 0 0 0 0 0 0 0 0 0 0 0 0 0 127 0" result="hardAlpha"/>
<feOffset dy="4"/>
<feGaussianBlur stdDeviation="2"/>
<feComposite in2="hardAlpha" operator="out"/>
<feColorMatrix type="matrix" values="0 0 0 0 0 0 0 0 0 0 0 0 0 0 0 0 0 0 0.25 0"/>
<feBlend mode="normal" in2="BackgroundImageFix" result="effect1_dropShadow_1_1065"/>
<feBlend mode="normal" in="SourceGraphic" in2="effect1_dropShadow_1_1065" result="shape"/>
</filter>
</defs>
</svg>
